<svg width="33" height="42" viewBox="0 0 33 42" fill="none" xmlns="http://www.w3.org/2000/svg">
<path d="M11.9208 3.71941H15.2098C15.3814 3.71941 15.5459 3.65124 15.6673 3.52989C15.7886 3.40854 15.8568 3.24396 15.8568 3.07235C15.8568 2.90074 15.7886 2.73616 15.6673 2.61481C15.5459 2.49346 15.3814 2.42529 15.2098 2.42529H11.9208C11.7491 2.42529 11.5846 2.49346 11.4632 2.61481C11.3419 2.73616 11.2737 2.90074 11.2737 3.07235C11.2737 3.24396 11.3419 3.40854 11.4632 3.52989C11.5846 3.65124 11.7491 3.71941 11.9208 3.71941ZM8.98763 38.5545H14.8539C15.0255 38.5545 15.1901 38.4863 15.3114 38.365C15.4328 38.2436 15.5009 38.079 15.5009 37.9074C15.5009 37.7358 15.4328 37.5712 15.3114 37.4499C15.1901 37.3285 15.0255 37.2604 14.8539 37.2604H8.98763C8.81602 37.2604 8.65144 37.3285 8.53009 37.4499C8.40875 37.5712 8.34058 37.7358 8.34058 37.9074C8.34058 38.079 8.40875 38.2436 8.53009 38.365C8.65144 38.4863 8.81602 38.5545 8.98763 38.5545Z" fill="#00AEB5"/>
<path d="M0.647059 32.1161C0.818669 32.1161 0.983251 32.0479 1.1046 31.9266C1.22595 31.8053 1.29412 31.6407 1.29412 31.4691V6.14706H22.5468V9.47553C22.5468 9.64714 22.6149 9.81172 22.7363 9.93307C22.8576 10.0544 23.0222 10.1226 23.1938 10.1226C23.3654 10.1226 23.53 10.0544 23.6514 9.93307C23.7727 9.81172 23.8409 9.64714 23.8409 9.47553L23.8435 2.57529C23.8435 1.15824 22.6852 0 21.2636 0H2.57529C1.22294 0 0 1.11294 0 2.57723V31.4691C0 31.6407 0.0681722 31.8053 0.189519 31.9266C0.310866 32.0479 0.475448 32.1161 0.647059 32.1161ZM21.2624 1.29412C21.9463 1.29412 22.5474 1.85382 22.5474 2.57723V4.85294H1.29412V2.57529C1.29412 1.87 1.87259 1.29412 2.57724 1.29412H21.2624Z" fill="#00AEB5"/>
<path d="M15.9138 16.3033C16.0357 16.424 16.2006 16.4914 16.3722 16.4905C16.5437 16.4897 16.708 16.4207 16.8287 16.2988L19.5334 13.5695C19.6533 13.4483 19.7206 13.2848 19.7206 13.1143C19.7206 12.9438 19.6533 12.7802 19.5334 12.6591L16.8287 9.92978C16.7067 9.81416 16.5445 9.75055 16.3764 9.75242C16.2083 9.75429 16.0476 9.82149 15.9282 9.9398C15.8088 10.0581 15.7401 10.2182 15.7367 10.3863C15.7333 10.5543 15.7954 10.7171 15.9099 10.8402L18.1623 13.1146L15.9092 15.3884C15.7885 15.5103 15.7212 15.6752 15.722 15.8468C15.7229 16.0184 15.7918 16.1826 15.9138 16.3033ZM7.92711 9.92525C7.86681 9.86533 7.79528 9.8179 7.71662 9.78569C7.63795 9.75347 7.5537 9.73711 7.4687 9.73753C7.38369 9.73795 7.29961 9.75515 7.22126 9.78814C7.14292 9.82113 7.07186 9.86927 7.01217 9.92978L4.30811 12.6591C4.18818 12.7802 4.12091 12.9438 4.12091 13.1143C4.12091 13.2848 4.18818 13.4483 4.30811 13.5695L7.01281 16.2988C7.07186 16.3622 7.14306 16.4132 7.22218 16.4486C7.3013 16.484 7.38673 16.5032 7.47339 16.5049C7.56006 16.5067 7.6462 16.491 7.72669 16.4589C7.80718 16.4267 7.88039 16.3787 7.94197 16.3177C8.00355 16.2566 8.05224 16.1839 8.08515 16.1037C8.11806 16.0235 8.13452 15.9375 8.13356 15.8508C8.13259 15.7642 8.11422 15.6785 8.07954 15.5991C8.04485 15.5197 7.99456 15.448 7.93164 15.3884L5.67923 13.1146L7.93164 10.8402C8.05234 10.7183 8.11968 10.5534 8.11883 10.3818C8.11798 10.2102 8.04902 10.046 7.92711 9.92525ZM12.9638 8.09667L9.16558 17.6537C9.13418 17.7327 9.11865 17.8171 9.11986 17.9021C9.12108 17.9871 9.13903 18.071 9.17268 18.149C9.20632 18.2271 9.25501 18.2977 9.31597 18.357C9.37692 18.4162 9.44895 18.4629 9.52793 18.4943C9.60691 18.5257 9.69131 18.5412 9.77629 18.54C9.86128 18.5387 9.94519 18.5208 10.0232 18.4872C10.1013 18.4535 10.172 18.4048 10.2312 18.3439C10.2904 18.2829 10.3371 18.2109 10.3685 18.1319L14.1667 8.57484C14.2301 8.41524 14.2275 8.23699 14.1595 8.0793C14.0915 7.92161 13.9636 7.7974 13.804 7.73399C13.6444 7.67058 13.4662 7.67317 13.3085 7.74118C13.1508 7.8092 13.0266 7.93707 12.9632 8.09667H12.9638ZM23.197 20.0847C21.3012 20.0847 19.7612 21.6247 19.7612 23.5206C19.7612 25.4346 21.3219 26.9565 23.197 26.9565C25.0645 26.9565 26.6265 25.4372 26.6265 23.5206C26.6265 21.6247 25.0865 20.0847 23.197 20.0847ZM23.8441 25.5588V23.0935C23.8441 22.7377 23.5529 22.4465 23.197 22.4465C22.8347 22.4465 22.55 22.7377 22.55 23.0935V25.5653C22.0636 25.4095 21.6488 25.0852 21.3802 24.6508C21.1117 24.2164 21.007 23.7004 21.085 23.1956C21.163 22.6909 21.4186 22.2306 21.8058 21.8975C22.193 21.5645 22.6863 21.3805 23.197 21.3788C24.3747 21.3788 25.3323 22.343 25.3323 23.5206C25.3323 24.4783 24.7047 25.2871 23.8441 25.5588Z" fill="#00AEB5"/>
<path d="M31.5765 21.4758L29.9847 21.2946C29.8618 20.9193 29.7065 20.5505 29.5188 20.1946L30.4506 18.8746C30.6382 18.6223 30.6059 18.2664 30.3859 18.0464L28.5288 16.1958C28.4171 16.0824 28.2674 16.0144 28.1085 16.0048C27.9496 15.9952 27.7928 16.0448 27.6682 16.144L26.4194 17.147C26.0635 16.9658 25.6947 16.817 25.3129 16.7005L25.0476 15.1023C25.0216 14.9514 24.943 14.8147 24.8257 14.7164C24.7084 14.6181 24.5601 14.5645 24.4071 14.5652H21.7865C21.4565 14.5652 21.1782 14.8111 21.1394 15.1411L20.9647 16.7393C20.5829 16.8623 20.2206 17.0175 19.8712 17.1987L18.5447 16.2605C18.4208 16.1717 18.2693 16.13 18.1174 16.1431C17.9656 16.1561 17.8234 16.223 17.7165 16.3317L15.8659 18.1823C15.6329 18.4152 15.6135 18.784 15.8206 19.0428L16.8171 20.2981C16.6359 20.654 16.4871 21.0228 16.3706 21.4046L14.7788 21.6699C14.4682 21.7281 14.2353 21.9934 14.2353 22.3105V24.9311C14.2353 25.2611 14.4876 25.5328 14.8112 25.5717L16.4029 25.7528C16.5259 26.1346 16.6876 26.5034 16.8688 26.8528L15.9371 28.1664C15.7559 28.4252 15.7818 28.7746 16.0082 29.0011L17.8588 30.8517C18.0918 31.0846 18.4606 31.104 18.7194 30.897L19.9747 29.9005C20.3306 30.0752 20.6929 30.224 21.0747 30.3405L21.34 31.9387C21.3646 32.0907 21.4427 32.229 21.5601 32.3286C21.6775 32.4282 21.8266 32.4827 21.9806 32.4823H22.55V33.9123H0.647059C0.291176 33.9123 0 34.2034 0 34.5593V38.8364C0.00170836 39.5189 0.273582 40.1729 0.756173 40.6555C1.23876 41.1381 1.89281 41.41 2.57529 41.4117H21.2624C22.6859 41.4117 23.8441 40.2534 23.8441 38.8364V32.4823H24.6012C24.9312 32.4823 25.2094 32.2364 25.2482 31.9064L25.4294 30.3081C25.8057 30.1846 26.1714 30.031 26.5229 29.8487L27.8429 30.787C28.1018 30.9681 28.4512 30.9358 28.6776 30.7158L30.5218 28.8587C30.7547 28.6258 30.7741 28.257 30.5671 28.0046L29.5706 26.7493C29.7518 26.387 29.9006 26.0181 30.0171 25.6428L31.6088 25.3711C31.9194 25.3193 32.1524 25.0475 32.1524 24.737V22.1164C32.1524 21.7864 31.9065 21.5081 31.5765 21.4758ZM22.55 38.8364C22.55 39.5417 21.9741 40.1175 21.2624 40.1175H2.57529C1.87 40.1175 1.29412 39.5417 1.29412 38.8364V35.2064H22.55V38.8364ZM30.8582 24.187L29.3959 24.4328C29.1371 24.4781 28.9365 24.6658 28.8718 24.9246C28.7424 25.4681 28.5288 25.9922 28.2441 26.4905C28.1082 26.717 28.1276 27.0081 28.2959 27.2152L29.1953 28.354L28.1471 29.4152L26.9306 28.5481C26.8268 28.4756 26.7041 28.4352 26.5776 28.4317C26.4511 28.4283 26.3264 28.462 26.2188 28.5287C25.7465 28.8199 25.2288 29.0399 24.6788 29.1758C24.4135 29.2405 24.2194 29.467 24.1871 29.7323L24.0253 31.1881H22.5241L22.2782 29.7193C22.258 29.5945 22.201 29.4786 22.1146 29.3864C22.0281 29.2942 21.9161 29.2299 21.7929 29.2017C21.2494 29.0658 20.7253 28.8523 20.24 28.5675C20.1273 28.5008 19.997 28.47 19.8663 28.4792C19.7357 28.4885 19.611 28.5373 19.5088 28.6193L18.3635 29.5252L17.3088 28.4705L18.1629 27.2734C18.3008 27.0787 18.3247 26.7907 18.1888 26.5487C17.8976 26.0764 17.6712 25.5523 17.5288 24.9958C17.4976 24.8691 17.428 24.7551 17.3295 24.6694C17.2311 24.5837 17.1086 24.5305 16.9788 24.517L15.5294 24.3487V22.8605L16.9918 22.6146C17.2506 22.5693 17.4576 22.3752 17.5159 22.1228C17.6453 21.5728 17.8588 21.0487 18.15 20.5699C18.2859 20.337 18.2729 20.0458 18.1047 19.8323L17.1924 18.687L18.2471 17.6323L19.4571 18.4928C19.5602 18.5663 19.6825 18.6079 19.8091 18.6125C19.9356 18.6171 20.0607 18.5845 20.1688 18.5187C20.6412 18.2275 21.1653 18.0075 21.7218 17.8652C21.9806 17.8005 22.1682 17.5805 22.2006 17.3152L22.3624 15.8593H23.8635L24.1094 17.3217C24.1547 17.5805 24.3424 17.7875 24.5947 17.8458C25.1447 17.9752 25.6688 18.1887 26.1541 18.4799C26.3871 18.6158 26.6782 18.5964 26.8853 18.4281L28.0241 17.5158L29.0788 18.577L28.2247 19.7805C28.0888 19.9727 28.061 20.2535 28.1988 20.4987C28.4965 20.984 28.7165 21.5081 28.8524 22.0452C28.9171 22.304 29.1371 22.4981 29.4088 22.5305L30.8582 22.6923V24.187Z" fill="#00AEB5"/>
</svg>
