<svg width="44" height="44" viewBox="0 0 44 44" fill="none" xmlns="http://www.w3.org/2000/svg">
<mask id="mask0_233_94" style="mask-type:alpha" maskUnits="userSpaceOnUse" x="0" y="0" width="44" height="44">
<rect width="44" height="44" fill="#D9D9D9"/>
</mask>
<g mask="url(#mask0_233_94)">
<path d="M39.5333 28.4497V15.5512C40.9039 15.2375 41.93 14.0087 41.93 12.5444C41.93 10.8421 40.5465 9.45687 38.845 9.45687C37.9539 9.45687 37.1504 9.83755 36.5867 10.4442L31.0002 7.21747L25.4155 3.99328C25.504 3.70627 25.5521 3.40121 25.5521 3.08498C25.5521 1.38351 24.1686 0 22.4671 0C20.7648 0 19.3796 1.38351 19.3796 3.08498C19.3796 3.40121 19.4277 3.70541 19.5162 3.99328L13.9315 7.21747L8.34586 10.4434C7.78214 9.83669 6.97781 9.45687 6.08583 9.45687C4.38437 9.45687 3.00086 10.8421 3.00086 12.5444C3.00086 14.0087 4.02689 15.2375 5.39752 15.5512V28.4497C4.02603 28.7633 3 29.9921 3 31.4564C3 33.1579 4.38351 34.5414 6.08498 34.5414C6.97695 34.5414 7.78128 34.1607 8.345 33.5549L13.9306 36.7808L19.5154 40.005C19.4247 40.2989 19.3786 40.6048 19.3787 40.9124C19.3787 42.6148 20.764 44 22.4663 44C24.1677 44 25.5513 42.6148 25.5513 40.9124C25.5513 40.5962 25.5031 40.292 25.4146 40.0041L31.0002 36.7808L36.5867 33.5549C37.1504 34.1616 37.9547 34.5423 38.8459 34.5423C40.5473 34.5423 41.9308 33.1588 41.9308 31.4573C41.9308 29.9921 40.9048 28.7633 39.5333 28.4497ZM36.5867 29.3588L29.8169 25.4498V18.5502L36.5858 14.6429C37 15.0889 37.544 15.412 38.1567 15.5521V28.4505C37.544 28.5897 37 28.9128 36.5867 29.3588ZM22.4663 29.1706C19.0453 29.1706 16.4897 27.8533 16.4897 26.6752V24.3232C16.7724 24.5286 17.0946 24.7193 17.4573 24.8921C18.8064 25.5365 20.5852 25.8915 22.4663 25.8915C24.3473 25.8915 26.1253 25.5365 27.4744 24.8921C27.8362 24.7193 28.1584 24.5286 28.4403 24.324V26.6752C28.4403 27.8533 25.8855 29.1706 22.4663 29.1706ZM8.34586 29.358C7.92451 28.9045 7.37665 28.588 6.77329 28.4497V15.5512C7.38685 15.4111 7.9308 15.088 8.34586 14.6429L15.1139 18.5494V25.4489L8.34586 29.358ZM22.4663 14.8302C25.8855 14.8302 28.4403 16.1476 28.4403 17.3257C28.4403 18.503 25.8855 19.8186 22.4663 19.8186C19.0453 19.8186 16.4897 18.5021 16.4897 17.3257C16.4905 16.1476 19.0462 14.8302 22.4663 14.8302ZM16.4905 19.6244C16.7733 19.8298 17.0981 20.0205 17.4616 20.1941C18.8133 20.8395 20.5912 21.1952 22.4671 21.1952C24.3422 21.1952 26.1184 20.8395 27.4701 20.1941C27.8336 20.0205 28.1576 19.8298 28.4412 19.6244V22.0202C28.4412 23.1983 25.8864 24.5157 22.4671 24.5157C19.0462 24.5157 16.4905 23.1983 16.4905 22.0202V19.6244ZM38.8459 10.8335C39.7877 10.8335 40.5551 11.6009 40.5551 12.5444C40.5551 13.4862 39.7885 14.2528 38.8459 14.2528C37.9032 14.2528 37.1367 13.4862 37.1367 12.5444C37.1367 11.6009 37.9032 10.8335 38.8459 10.8335ZM30.3119 8.40935L35.8967 11.6353C35.8082 11.9231 35.76 12.2282 35.76 12.5444C35.76 12.8598 35.8082 13.164 35.8958 13.451L29.7886 16.976C29.6339 15.9877 28.8244 15.1026 27.4693 14.4556C26.2843 13.8893 24.7727 13.5464 23.1537 13.4708V6.09519C23.7664 5.95512 24.3113 5.63115 24.7246 5.18516L30.3119 8.40935ZM22.4663 1.37664C23.4081 1.37664 24.1755 2.14316 24.1755 3.08498C24.1755 4.02851 23.409 4.79589 22.4663 4.79589C21.5227 4.79589 20.7554 4.02851 20.7554 3.08498C20.7554 2.14316 21.5227 1.37664 22.4663 1.37664ZM14.6189 8.41021L20.2054 5.18516C20.6205 5.63115 21.1644 5.95512 21.7788 6.09519V13.4708C20.1599 13.5464 18.6466 13.8901 17.4616 14.4556C16.1064 15.1026 15.2969 15.9886 15.1423 16.976L9.03676 13.4519C9.12741 13.1579 9.17347 12.852 9.17339 12.5444C9.17339 12.2273 9.12527 11.9223 9.0359 11.6344L14.6189 8.41021ZM4.37664 12.5444C4.37664 11.6009 5.14316 10.8335 6.08583 10.8335C7.02937 10.8335 7.79675 11.6009 7.79675 12.5444C7.79675 13.4862 7.02937 14.2528 6.08583 14.2528C5.14316 14.2528 4.37664 13.4862 4.37664 12.5444ZM6.08498 33.1656C5.14316 33.1656 4.37578 32.3991 4.37578 31.4573C4.37578 30.5155 5.1423 29.749 6.08498 29.749C7.02851 29.749 7.79589 30.5155 7.79589 31.4573C7.79589 32.3991 7.02851 33.1656 6.08498 33.1656ZM14.6189 35.5889L9.0359 32.3647C9.12441 32.0777 9.17253 31.7727 9.17253 31.4564C9.17253 31.1402 9.12441 30.836 9.0359 30.5481L15.1423 27.0215C15.2952 28.0123 16.1021 28.8991 17.4573 29.547C18.6406 30.1125 20.1547 30.4545 21.778 30.5301V37.9057C21.1644 38.0457 20.6205 38.3688 20.2054 38.814L14.6189 35.5889ZM22.4663 42.6242C21.5227 42.6242 20.7554 41.8568 20.7554 40.9133C20.7554 39.9715 21.5227 39.205 22.4663 39.205C23.4081 39.205 24.1755 39.9715 24.1755 40.9133C24.1755 41.856 23.409 42.6242 22.4663 42.6242ZM30.3119 35.5889L24.7246 38.814C24.3104 38.3688 23.7673 38.0457 23.1546 37.9057V30.5301C24.7779 30.4545 26.2911 30.1116 27.4744 29.547C28.8287 28.8999 29.6348 28.0131 29.7877 27.0223L35.8958 30.5498C35.8073 30.8369 35.7592 31.1411 35.7592 31.4564C35.7592 31.7718 35.8073 32.076 35.8958 32.363L30.3119 35.5889ZM38.8459 33.1656C37.904 33.1656 37.1367 32.3991 37.1367 31.4573C37.1367 30.5155 37.9032 29.749 38.8459 29.749C39.7885 29.749 40.5551 30.5155 40.5551 31.4573C40.5551 32.3991 39.7877 33.1656 38.8459 33.1656Z" fill="#00AEB5"/>
</g>
</svg>
