<svg width="470" height="70" viewBox="0 0 470 70" fill="none" xmlns="http://www.w3.org/2000/svg">
<path d="M117.111 27.7781C117.593 27.7781 117.99 27.9269 118.302 28.2245C118.642 28.5221 118.813 28.9008 118.813 29.3607C118.813 29.7936 118.642 30.1723 118.302 30.4969C117.99 30.7945 117.593 30.9433 117.111 30.9433H109.668V48.7984C109.668 49.2583 109.512 49.637 109.2 49.9346C108.888 50.2322 108.491 50.381 108.009 50.381C107.527 50.381 107.13 50.2322 106.818 49.9346C106.506 49.637 106.35 49.2583 106.35 48.7984V30.9433H98.6094C98.1557 30.9433 97.7587 30.7945 97.4185 30.4969C97.1066 30.1723 96.9506 29.7936 96.9506 29.3607C96.9506 28.9008 97.1066 28.5221 97.4185 28.2245C97.7587 27.9269 98.1557 27.7781 98.6094 27.7781H117.111Z" fill="#00AEB5"/>
<path d="M141.401 47.9462C141.6 48.2167 141.699 48.5008 141.699 48.7984C141.727 49.096 141.671 49.38 141.529 49.6506C141.415 49.894 141.231 50.0969 140.976 50.2592C140.721 50.4216 140.423 50.5027 140.083 50.5027C139.544 50.5027 139.119 50.2863 138.807 49.8535L131.151 40.3984H125.324V48.8795C125.324 49.2853 125.168 49.637 124.856 49.9346C124.544 50.2322 124.161 50.381 123.707 50.381C123.254 50.381 122.871 50.2322 122.559 49.9346C122.276 49.637 122.134 49.2853 122.134 48.8795V40.3984H122.091V27.5752H135.659C136.595 27.5752 137.46 27.751 138.254 28.1027C139.076 28.4274 139.785 28.8873 140.38 29.4824C141.004 30.0506 141.486 30.7269 141.827 31.5114C142.195 32.2689 142.379 33.094 142.379 33.9868C142.379 34.8795 142.195 35.7182 141.827 36.5027C141.458 37.2602 140.962 37.923 140.338 38.4911C139.714 39.0593 138.991 39.5192 138.169 39.8708C137.375 40.1955 136.51 40.3578 135.574 40.3578H135.276L141.401 47.9462ZM135.617 37.2737C136.581 37.2737 137.389 36.9626 138.041 36.3404C138.722 35.6911 139.062 34.9066 139.062 33.9868C139.062 33.067 138.722 32.296 138.041 31.6737C137.389 31.0245 136.581 30.6998 135.617 30.6998H125.366V37.2737H135.617Z" fill="#00AEB5"/>
<path d="M169.178 48.7172C169.405 49.2583 169.334 49.7588 168.966 50.2187C168.626 50.6786 168.172 50.9085 167.605 50.9085C166.868 50.9085 166.357 50.5704 166.074 49.894L158.886 32.1607C158.659 31.6196 158.262 31.3491 157.695 31.3491C157.099 31.3491 156.688 31.6061 156.461 32.1201L147.869 49.9752C147.586 50.5704 147.09 50.8679 146.381 50.8679C145.757 50.8679 145.275 50.638 144.935 50.1781C144.623 49.6911 144.594 49.1771 144.85 48.6361L153.441 30.781C153.838 29.9423 154.42 29.2931 155.185 28.8332C155.951 28.3462 156.816 28.1163 157.78 28.1433C158.744 28.1704 159.594 28.4274 160.332 28.9143C161.097 29.4013 161.664 30.0776 162.033 30.9433V30.9839L169.264 48.7172H169.178Z" fill="#00AEB5"/>
<path d="M174.547 27.7781C175.029 27.7781 175.426 27.9269 175.738 28.2245C176.078 28.5221 176.248 28.9008 176.248 29.3607V48.7984C176.248 49.2583 176.078 49.637 175.738 49.9346C175.426 50.2322 175.029 50.381 174.547 50.381C174.093 50.381 173.696 50.2322 173.356 49.9346C173.044 49.637 172.888 49.2583 172.888 48.7984V29.3607C172.888 28.9008 173.044 28.5221 173.356 28.2245C173.696 27.9269 174.093 27.7781 174.547 27.7781Z" fill="#00AEB5"/>
<path d="M201.643 27.6158C202.125 27.6158 202.522 27.7781 202.834 28.1027C203.175 28.4003 203.345 28.7791 203.345 29.239V48.5143C203.345 49.0283 203.16 49.4747 202.792 49.8535C202.423 50.2322 201.955 50.4486 201.388 50.5027C201.076 50.5027 200.764 50.4486 200.452 50.3404C200.169 50.2051 199.928 50.0158 199.729 49.7723L184.97 32.2824V48.8795C184.97 49.3394 184.8 49.7317 184.46 50.0564C184.148 50.3539 183.751 50.5027 183.269 50.5027C182.815 50.4757 182.433 50.3134 182.121 50.0158C181.809 49.6911 181.653 49.3124 181.653 48.8795V30.0506C181.653 29.4013 181.894 28.8332 182.376 28.3462C182.886 27.8593 183.496 27.6158 184.205 27.6158C185.027 27.6158 185.694 27.9269 186.204 28.5491L199.985 44.9433V29.1984C199.985 28.7385 200.141 28.3597 200.452 28.0622C200.793 27.7646 201.19 27.6158 201.643 27.6158Z" fill="#00AEB5"/>
<path d="M238.841 27.7375C239.72 27.7375 240.557 27.8998 241.351 28.2245C242.145 28.5491 242.825 28.9955 243.392 29.5636C243.988 30.1047 244.456 30.7539 244.796 31.5114C245.136 32.2419 245.306 33.0264 245.306 33.865V44.2535C245.306 45.0921 245.136 45.8902 244.796 46.6477C244.456 47.3781 243.988 48.0274 243.392 48.5955C242.825 49.1365 242.145 49.5694 241.351 49.894C240.557 50.2187 239.72 50.381 238.841 50.381H227.443C226.564 50.381 225.727 50.2187 224.933 49.894C224.168 49.5694 223.487 49.1365 222.892 48.5955C222.324 48.0274 221.871 47.3781 221.531 46.6477C221.19 45.8902 221.02 45.0921 221.02 44.2535V33.865C221.02 33.0264 221.19 32.2419 221.531 31.5114C221.871 30.7539 222.324 30.1047 222.892 29.5636C223.487 28.9955 224.168 28.5491 224.933 28.2245C225.727 27.8998 226.564 27.7375 227.443 27.7375H238.841ZM241.904 33.865C241.904 33.0535 241.606 32.3636 241.011 31.7955C240.415 31.2003 239.692 30.9027 238.841 30.9027H227.443C226.592 30.9027 225.855 31.2003 225.231 31.7955C224.635 32.3636 224.338 33.0535 224.338 33.865V44.2535C224.338 45.065 224.635 45.7684 225.231 46.3636C225.855 46.9317 226.592 47.2158 227.443 47.2158H238.841C239.692 47.2158 240.415 46.9317 241.011 46.3636C241.606 45.7684 241.904 45.065 241.904 44.2535V33.865Z" fill="#00AEB5"/>
<path d="M270.216 37.5172C270.698 37.5172 271.095 37.666 271.407 37.9636C271.719 38.2612 271.875 38.6399 271.875 39.0998C271.875 39.5327 271.719 39.9114 271.407 40.2361C271.095 40.5336 270.698 40.6824 270.216 40.6824H253.501V48.7984C253.501 49.2583 253.331 49.637 252.991 49.9346C252.679 50.2322 252.282 50.381 251.8 50.381C251.346 50.381 250.949 50.2322 250.609 49.9346C250.297 49.637 250.141 49.2583 250.141 48.7984V34.6361C250.141 33.6892 250.325 32.81 250.694 31.9984C251.091 31.1597 251.615 30.4293 252.268 29.8071C252.948 29.1849 253.728 28.6979 254.607 28.3462C255.486 27.9675 256.436 27.7781 257.457 27.7781H270.174C270.656 27.7781 271.053 27.9269 271.365 28.2245C271.705 28.5221 271.875 28.9008 271.875 29.3607C271.875 29.7936 271.705 30.1723 271.365 30.4969C271.053 30.7945 270.656 30.9433 270.174 30.9433H257.457C256.889 30.9433 256.365 31.038 255.883 31.2274C255.401 31.4167 254.975 31.6873 254.607 32.039C254.267 32.3636 253.983 32.7559 253.756 33.2158C253.558 33.6486 253.458 34.1221 253.458 34.6361V37.5172H270.174H270.216Z" fill="#00AEB5"/>
<path d="M306.392 27.7781C306.874 27.7781 307.271 27.9269 307.583 28.2245C307.895 28.5221 308.051 28.9008 308.051 29.3607C308.051 29.7936 307.895 30.1723 307.583 30.4969C307.271 30.7945 306.874 30.9433 306.392 30.9433H298.949V48.7984C298.949 49.2583 298.779 49.637 298.438 49.9346C298.126 50.2322 297.744 50.381 297.29 50.381C296.808 50.381 296.411 50.2322 296.099 49.9346C295.787 49.637 295.631 49.2583 295.631 48.7984V30.9433H287.89C287.408 30.9433 287.011 30.7945 286.699 30.4969C286.387 30.1723 286.231 29.7936 286.231 29.3607C286.231 28.9008 286.387 28.5221 286.699 28.2245C287.011 27.9269 287.408 27.7781 287.89 27.7781H306.392Z" fill="#00AEB5"/>
<path d="M331.489 27.7781C331.971 27.7781 332.368 27.9269 332.68 28.2245C333.02 28.5221 333.19 28.9008 333.19 29.3607V48.7984C333.19 49.2583 333.02 49.637 332.68 49.9346C332.368 50.2322 331.971 50.381 331.489 50.381C331.035 50.381 330.638 50.2322 330.298 49.9346C329.986 49.637 329.83 49.2583 329.83 48.7984V40.6824H314.646V48.7984C314.646 49.2583 314.476 49.637 314.136 49.9346C313.824 50.2322 313.427 50.381 312.945 50.381C312.491 50.381 312.094 50.2322 311.754 49.9346C311.442 49.637 311.286 49.2583 311.286 48.7984V29.3607C311.286 28.9008 311.442 28.5221 311.754 28.2245C312.094 27.9269 312.491 27.7781 312.945 27.7781C313.427 27.7781 313.824 27.9269 314.136 28.2245C314.476 28.5221 314.646 28.9008 314.646 29.3607V37.5172H329.83V29.3607C329.83 28.9008 329.986 28.5221 330.298 28.2245C330.638 27.9269 331.035 27.7781 331.489 27.7781Z" fill="#00AEB5"/>
<path d="M356.015 27.7375C356.894 27.7375 357.73 27.8998 358.524 28.2245C359.318 28.5491 359.999 28.9955 360.566 29.5636C361.161 30.1047 361.629 30.7539 361.969 31.5114C362.31 32.2419 362.48 33.0264 362.48 33.865V44.2535C362.48 45.0921 362.31 45.8902 361.969 46.6477C361.629 47.3781 361.161 48.0274 360.566 48.5955C359.999 49.1365 359.318 49.5694 358.524 49.894C357.73 50.2187 356.894 50.381 356.015 50.381H344.616C343.737 50.381 342.9 50.2187 342.106 49.894C341.341 49.5694 340.66 49.1365 340.065 48.5955C339.498 48.0274 339.044 47.3781 338.704 46.6477C338.363 45.8902 338.193 45.0921 338.193 44.2535V33.865C338.193 33.0264 338.363 32.2419 338.704 31.5114C339.044 30.7539 339.498 30.1047 340.065 29.5636C340.66 28.9955 341.341 28.5491 342.106 28.2245C342.9 27.8998 343.737 27.7375 344.616 27.7375H356.015ZM359.077 33.865C359.077 33.0535 358.779 32.3636 358.184 31.7955C357.588 31.2003 356.865 30.9027 356.015 30.9027H344.616C343.765 30.9027 343.028 31.2003 342.404 31.7955C341.809 32.3636 341.511 33.0535 341.511 33.865V44.2535C341.511 45.065 341.809 45.7684 342.404 46.3636C343.028 46.9317 343.765 47.2158 344.616 47.2158H356.015C356.865 47.2158 357.588 46.9317 358.184 46.3636C358.779 45.7684 359.077 45.065 359.077 44.2535V33.865Z" fill="#00AEB5"/>
<path d="M389.814 27.6158C390.296 27.6158 390.693 27.7646 391.005 28.0622C391.317 28.3597 391.473 28.7385 391.473 29.1984V44.2535C391.473 45.0921 391.303 45.8902 390.962 46.6477C390.622 47.3781 390.168 48.0138 389.601 48.5549C389.034 49.096 388.354 49.5288 387.56 49.8535C386.794 50.1781 385.972 50.3404 385.093 50.3404H373.694C372.815 50.3404 371.979 50.1781 371.185 49.8535C370.419 49.5288 369.738 49.096 369.143 48.5549C368.576 48.0138 368.122 47.3781 367.782 46.6477C367.442 45.8902 367.272 45.0921 367.272 44.2535V29.1984C367.272 28.7385 367.428 28.3597 367.739 28.0622C368.08 27.7646 368.491 27.6158 368.973 27.6158C369.427 27.6158 369.809 27.7646 370.121 28.0622C370.462 28.3597 370.632 28.7385 370.632 29.1984V44.2535C370.632 45.065 370.929 45.7684 371.525 46.3636C372.149 46.9317 372.886 47.2158 373.737 47.2158H385.135C385.986 47.2158 386.709 46.9317 387.305 46.3636C387.9 45.7684 388.198 45.065 388.198 44.2535V29.1984C388.198 28.7385 388.354 28.3597 388.666 28.0622C389.006 27.7646 389.417 27.6158 389.899 27.6158H389.814Z" fill="#00AEB5"/>
<path d="M408.293 39.0998C408.293 38.6399 408.449 38.2612 408.76 37.9636C409.072 37.666 409.469 37.5172 409.951 37.5172H417.99V50.4216H403.699C402.678 50.4216 401.728 50.2457 400.849 49.894C399.97 49.5153 399.191 49.0148 398.51 48.3926C397.858 47.7704 397.333 47.0399 396.936 46.2013C396.568 45.3626 396.383 44.4699 396.383 43.523V34.6766C396.383 33.7298 396.568 32.837 396.936 31.9984C397.333 31.1597 397.858 30.4293 398.51 29.8071C399.191 29.1849 399.97 28.6979 400.849 28.3462C401.728 27.9675 402.678 27.7781 403.699 27.7781H416.416C416.898 27.7781 417.295 27.9404 417.607 28.2651C417.919 28.5626 418.075 28.9414 418.075 29.4013C418.075 29.8341 417.919 30.2129 417.607 30.5375C417.295 30.8351 416.898 30.9839 416.416 30.9839H403.699C403.132 30.9839 402.607 31.0786 402.125 31.2679C401.643 31.4573 401.218 31.7279 400.849 32.0795C400.481 32.4042 400.183 32.7964 399.956 33.2564C399.758 33.6892 399.658 34.1626 399.658 34.6766V43.523C399.658 44.037 399.758 44.524 399.956 44.9839C400.183 45.4438 400.481 45.8496 400.849 46.2013C401.218 46.5259 401.643 46.7829 402.125 46.9723C402.607 47.1617 403.132 47.2564 403.699 47.2564H414.63V40.6824H409.951C409.469 40.6824 409.072 40.5336 408.76 40.2361C408.449 39.9114 408.293 39.5327 408.293 39.0998Z" fill="#00AEB5"/>
<path d="M443.263 27.7781C443.745 27.7781 444.142 27.9269 444.454 28.2245C444.794 28.5221 444.964 28.9008 444.964 29.3607V48.7984C444.964 49.2583 444.794 49.637 444.454 49.9346C444.142 50.2322 443.745 50.381 443.263 50.381C442.809 50.381 442.412 50.2322 442.072 49.9346C441.76 49.637 441.604 49.2583 441.604 48.7984V40.6824H426.42V48.7984C426.42 49.2583 426.249 49.637 425.909 49.9346C425.597 50.2322 425.2 50.381 424.718 50.381C424.265 50.381 423.868 50.2322 423.527 49.9346C423.215 49.637 423.059 49.2583 423.059 48.7984V29.3607C423.059 28.9008 423.215 28.5221 423.527 28.2245C423.868 27.9269 424.265 27.7781 424.718 27.7781C425.2 27.7781 425.597 27.9269 425.909 28.2245C426.249 28.5221 426.42 28.9008 426.42 29.3607V37.5172H441.604V29.3607C441.604 28.9008 441.76 28.5221 442.072 28.2245C442.412 27.9269 442.809 27.7781 443.263 27.7781Z" fill="#00AEB5"/>
<path d="M468.341 27.7781C468.823 27.7781 469.22 27.9269 469.532 28.2245C469.844 28.5221 470 28.9008 470 29.3607C470 29.7936 469.844 30.1723 469.532 30.4969C469.22 30.7945 468.823 30.9433 468.341 30.9433H460.898V48.7984C460.898 49.2583 460.728 49.637 460.387 49.9346C460.075 50.2322 459.693 50.381 459.239 50.381C458.757 50.381 458.36 50.2322 458.048 49.9346C457.736 49.637 457.58 49.2583 457.58 48.7984V30.9433H449.839C449.357 30.9433 448.96 30.7945 448.648 30.4969C448.336 30.1723 448.18 29.7936 448.18 29.3607C448.18 28.9008 448.336 28.5221 448.648 28.2245C448.96 27.9269 449.357 27.7781 449.839 27.7781H468.341Z" fill="#00AEB5"/>
<path fill-rule="evenodd" clip-rule="evenodd" d="M30.9537 51.5766C30.943 51.5107 30.9394 51.4448 30.9394 51.3789C30.9394 51.2472 30.9572 51.1189 30.9929 51.001C30.4188 50.6127 29.8553 50.207 29.3026 49.7875C29.0244 49.9816 28.6821 50.0961 28.3148 50.0961C28.0438 50.0961 27.787 50.0337 27.5588 49.9227C25.0269 52.3844 22.0207 54.392 18.665 55.817C22.9514 55.1235 27.0453 53.7089 30.7825 51.6737L30.9537 51.5766ZM37.4867 34.0324C37.2406 34.8645 36.4525 35.4748 35.5182 35.4748C34.5946 39.9648 32.5834 44.0874 29.7412 47.5476C29.9124 47.8042 30.0122 48.1128 30.0122 48.4422C30.0122 48.6364 29.9766 48.8201 29.9159 48.9935C30.4651 49.413 31.0286 49.8152 31.6027 50.2001C31.8238 50.0614 32.0877 49.9816 32.373 49.9816C32.6796 49.9816 32.9614 50.0753 33.1932 50.2348C37.1729 47.6621 40.6605 44.3405 43.417 40.3982C44.0447 39.5037 44.6259 38.5849 45.1608 37.6452C44.8114 37.295 44.5974 36.8166 44.5974 36.293C44.5974 36.0919 44.6295 35.9012 44.6866 35.7209C42.4649 34.6669 40.0115 34.0775 37.4867 34.0324ZM10.9659 6.246C12.6776 6.246 14.0684 7.59822 14.0684 9.26249C14.0684 10.9268 12.6776 12.279 10.9659 12.279C9.25422 12.279 7.86345 10.9268 7.86345 9.26249C7.86345 7.59822 9.25065 6.246 10.9659 6.246ZM8.45185 36.931C10.1636 36.931 11.5543 38.2832 11.5543 39.9475C11.5543 41.6118 10.1671 42.964 8.45185 42.964C6.74014 42.964 5.34939 41.6118 5.34939 39.9475C5.34939 38.2832 6.74014 36.931 8.45185 36.931ZM17.7735 44.975C18.8861 44.975 19.7883 45.8522 19.7883 46.9339C19.7883 48.0157 18.8861 48.8929 17.7735 48.8929C16.6609 48.8929 15.7587 48.0157 15.7587 46.9339C15.7587 45.8522 16.6645 44.975 17.7735 44.975ZM8.69435 17.7711C9.92107 17.7711 10.916 18.7384 10.916 19.9312C10.916 21.1239 9.92107 22.0912 8.69435 22.0912C7.46762 22.0912 6.47269 21.1239 6.47269 19.9312C6.47269 18.7384 7.46762 17.7711 8.69435 17.7711ZM3.1099 25.8532C4.82517 25.8532 6.2195 27.2054 6.2195 28.8766C6.2195 30.5443 4.82874 31.9 3.1099 31.9C1.39463 31.9 0.000299687 30.5478 0.000299687 28.8766C0.000299687 27.2054 1.39463 25.8532 3.1099 25.8532ZM51.7402 43.38C51.2017 43.1477 50.8237 42.6242 50.8237 42.0139C50.8237 41.6742 50.9414 41.3621 51.1376 41.109C50.2246 39.8331 49.1406 38.7062 47.9281 37.7458C47.5751 38.0544 47.1043 38.2416 46.5944 38.2416C46.3947 38.2416 46.2021 38.2139 46.0203 38.1584C45.4747 39.1084 44.8827 40.0411 44.2479 40.953C41.4201 45.0027 37.8397 48.4145 33.7566 51.053C33.7816 51.157 33.7958 51.2645 33.7958 51.3755C33.7958 51.4413 33.7922 51.5038 33.7816 51.5696C36.1637 52.9461 38.7098 54.0626 41.3773 54.8878C41.6518 54.6347 42.0227 54.4786 42.4328 54.4786C42.7787 54.4786 43.0961 54.5896 43.3528 54.7768C45.7813 51.1917 49.0229 47.7245 51.7402 43.38ZM55.3419 35.8041C54.7072 35.6204 55.5159 36.3084 55.5159 35.6323C55.5159 35.1053 55.3011 35.2667 55.7254 34.9998C55.515 34.1815 54.4968 31.4874 54.2258 30.6865C53.4127 28.2837 52.3358 25.9641 51.0056 23.7694C50.8986 23.8075 50.7845 23.8387 50.6704 23.8595C50.6312 24.2271 50.5848 24.598 50.5349 24.9656C50.0749 28.308 49.1477 31.588 47.7641 34.712C48.2704 35.0656 48.5985 35.6412 48.5985 36.293C48.5985 36.5115 48.5629 36.723 48.4915 36.9206C49.811 37.9538 50.9913 39.1778 51.9827 40.5646C52.104 40.5334 52.2288 40.5196 52.3607 40.5196C52.6817 40.5196 52.9812 40.6167 53.2308 40.7796C53.8157 39.6597 54.3577 38.4808 54.8356 37.2257C55.0103 36.7507 55.1815 36.2757 55.3419 35.8041ZM46.7228 7.86173C46.7941 7.64676 46.9189 7.45606 47.0723 7.29657C41.2917 3.89175 32.94 1.98824 23.0727 5.31331C23.1012 5.39306 23.1226 5.47974 23.1404 5.56642C27.5944 5.96515 31.8987 7.13361 35.8677 8.98511C36.2671 9.17234 36.6665 9.3665 37.0588 9.5676C37.4082 9.23475 37.8861 9.03018 38.4139 9.03018C39.0379 9.03018 39.5942 9.31796 39.9473 9.76177C42.1226 8.94697 44.3906 8.30553 46.7228 7.86173ZM48.3632 9.81724C48.3025 9.82418 48.2419 9.82764 48.1813 9.82764C47.5251 9.82764 46.9653 9.42545 46.7442 8.86375C44.5404 9.29369 42.3936 9.90046 40.3324 10.6737C40.3431 10.7534 40.3467 10.8331 40.3467 10.9129C40.3467 11.0863 40.3217 11.2561 40.2753 11.4156C43.0319 13.1839 45.5602 15.3128 47.7748 17.7676C48.3489 18.4056 48.9016 19.0574 49.4259 19.7301C49.5649 19.678 49.7076 19.6364 49.8573 19.6122C49.8217 16.3252 49.3296 13.0279 48.3632 9.81724ZM49.5685 8.97471C49.4972 9.1238 49.4009 9.25902 49.2832 9.37344C50.3138 12.7471 50.8416 16.2108 50.8737 19.6607C51.7973 19.9242 52.4748 20.7529 52.4748 21.7376C52.4748 22.3166 52.2395 22.8436 51.8579 23.232C53.238 25.4961 54.3541 27.8954 55.1957 30.3814C55.4739 31.2066 55.7254 32.048 56.2014 32.9367C56.1158 32.9125 56.2905 32.9471 56.2014 32.9367C58.53 23.8145 56.9003 15.5 51.1162 10.2576C50.6312 9.82071 50.1177 9.39077 49.5685 8.97471ZM32.6868 52.7312C32.2909 55.7858 32.7224 58.8335 33.86 61.6038C34.912 64.1592 35.7072 64.7574 37.879 66.6263C37.8167 64.905 38.6775 66.2497 38.8308 66.2046C38.1604 61.9295 39.9651 60.47 41.7695 57.3218C41.2489 57.0825 40.8923 56.5659 40.8923 55.973C40.8923 55.9071 40.8958 55.8413 40.9065 55.7789C38.2391 54.9398 35.6858 53.8129 33.2894 52.4364C33.1218 52.5751 32.915 52.6791 32.6868 52.7312ZM37.4996 67.6805C35.2173 65.7111 34.0276 64.6584 32.9221 61.9713C31.7168 59.045 31.2675 55.8239 31.6847 52.5959C31.5991 52.5509 31.5207 52.4989 31.4494 52.4399L31.2817 52.5335C26.7814 54.9883 21.7711 56.559 16.5325 57.0929C16.4648 57.5263 16.2615 57.9181 15.9691 58.2267C21.0365 64.9011 27.258 68.5995 35.8236 68.7347C35.8557 68.5648 37.4211 67.8261 37.4996 67.6805ZM31.7525 17.0846C31.5064 17.1747 31.239 17.2267 30.9572 17.2267C30.4366 17.2267 29.9552 17.0534 29.5772 16.7586C24.9591 20.4339 21.2005 25.132 18.6722 30.5582C19.3675 30.9812 19.8311 31.7301 19.8311 32.5865C19.8311 33.4534 19.3569 34.2092 18.6472 34.6287C20.6977 39.4101 23.7467 43.595 27.5017 46.9929C27.7442 46.8646 28.0188 46.7918 28.3112 46.7918C28.5395 46.7918 28.757 46.8369 28.9567 46.9166C31.7025 43.5673 33.646 39.5765 34.5304 35.232C33.8885 34.8923 33.457 34.2335 33.457 33.4742C33.457 32.538 34.1239 31.7475 35.019 31.536C35.3078 26.7685 34.2986 22.0947 32.2054 17.941C32.0591 17.6532 31.9058 17.3689 31.7525 17.0846ZM30.9572 12.8961C31.5456 12.8961 32.077 13.118 32.4764 13.4786C33.7709 12.6604 35.1153 11.9115 36.506 11.2388C36.4882 11.1348 36.4775 11.0238 36.4775 10.9164C36.4775 10.743 36.5025 10.58 36.5452 10.4205C36.1779 10.2333 35.8071 10.053 35.4326 9.87619C31.6597 8.11483 27.573 6.99145 23.3437 6.57885C26.0432 8.35754 28.3718 10.5384 30.2726 13.0002C30.4865 12.9308 30.7183 12.8961 30.9572 12.8961ZM22.1099 14.2796H28.8782C28.9959 13.9883 29.1742 13.7283 29.3989 13.5133C27.5303 11.1071 20.8865 7.41229 18.2262 5.69255C18.2262 5.69255 22.5213 4.42749 21.9971 4.42749C21.1828 4.42749 21.235 5.14223 21.3686 5.06002C21.4106 5.03423 21.5781 4.99653 21.5781 4.74815C21.5781 3.70798 20.0893 4.42749 21.1591 4.42749C21.7796 4.42749 22.4023 4.30781 22.7553 4.74815C27.163 2.69902 41.2881 -2.49143 53.5019 8.27779C57.6848 11.96 60.6375 17.5145 62.3778 24.9136C62.5632 32.2086 62.5752 35.232 64.943 37.2257C67.5783 39.4447 68.295 39.8492 67.7269 41.3344C65.384 42.3884 65.0594 43.5291 66.7569 44.7496C67.7269 45.1518 67.9551 45.7724 67.4451 46.6046C65.7584 47.6031 65.4481 48.2619 66.518 48.5774C67.0564 48.7438 67.4023 49.7112 66.3611 50.2244C63.8256 51.4795 65.523 53.3206 65.7869 55.4113C66.304 59.4957 62.9269 61.3299 55.645 60.9138C49.597 60.5671 40.4692 60.1343 38.547 67.048C39.0392 67.3704 38.0466 66.4239 38.0466 67.048C38.0466 68.0396 38.31 66.8371 37.2901 66.8371C36.4841 66.8371 35.6578 70.2407 35.4046 69.5403C30.9435 69.3947 29.1778 69.2144 25.3157 67.2623C21.3503 65.2583 17.852 62.3735 15.1346 58.778C14.885 58.8716 14.6176 58.9202 14.3358 58.9202C13.1091 58.9202 12.1106 57.9528 12.1106 56.7566C12.1106 55.5639 13.1056 54.5931 14.3358 54.5931C15.156 54.5931 15.8728 55.0265 16.258 55.6679C20.2983 54.3018 23.8964 52.0793 26.8313 49.2327C26.6994 48.997 26.6245 48.7265 26.6245 48.4422C26.6245 48.1787 26.6887 47.9256 26.8028 47.7037C22.9372 44.2018 19.799 39.8851 17.6915 34.9547C17.5881 34.9685 17.4811 34.9755 17.3741 34.9755C16.019 34.9755 14.9171 33.9041 14.9171 32.5865C14.9171 31.269 16.019 30.1976 17.3741 30.1976C17.4882 30.1976 17.6024 30.2046 17.7129 30.2219C20.309 24.6189 24.1817 19.7717 28.9424 15.9854C28.8319 15.7566 28.7605 15.507 28.7356 15.2435H22.1312C21.9208 16.2282 21.0293 16.9667 19.956 16.9667C18.7292 16.9667 17.7343 15.9993 17.7343 14.8066C17.7343 13.6139 18.7292 12.6465 19.956 12.6465C20.9937 12.643 21.8674 13.34 22.1099 14.2796ZM37.5188 33.0477C40.2254 33.0962 42.8536 33.7342 45.2179 34.8819C45.5745 34.549 46.0595 34.3479 46.5944 34.3479C46.6693 34.3479 46.7442 34.3514 46.8191 34.3583C48.1706 31.3037 49.0799 28.1 49.5293 24.8338C49.5756 24.4975 49.6184 24.1577 49.6541 23.8214C48.7126 23.5683 48.0244 22.7327 48.0244 21.7376C48.0244 21.1828 48.2419 20.6731 48.595 20.2917C48.0921 19.6503 47.5644 19.0262 47.0152 18.416C44.8684 16.0409 42.4292 13.9779 39.7654 12.2651C39.4159 12.5945 38.9416 12.7991 38.4139 12.7991C37.8219 12.7991 37.2906 12.5425 36.9375 12.1334C35.5967 12.7852 34.2951 13.5064 33.0434 14.3004C33.1361 14.5396 33.186 14.7962 33.186 15.0666C33.186 15.6318 32.9614 16.1484 32.5976 16.5333C32.7759 16.8557 32.9507 17.1851 33.1183 17.5145C35.2829 21.8035 36.3277 26.6264 36.0389 31.5498C36.7735 31.7336 37.3512 32.3161 37.5188 33.0477Z" fill="#00AEB5"/>
<path fill-rule="evenodd" clip-rule="evenodd" d="M67.9091 20.5759C63.3694 -0.117826 35.2416 -5.48602 18.0162 5.76077C35.3429 1.96856 57.1036 7.68598 58.7152 21.7758C60.7495 39.622 48.8211 32.2391 38.3415 61.932C37.4256 64.5244 35.7612 67.7659 35.1183 70C38.0156 67.3808 39.5083 65.5989 43.0617 63.7274C55.0561 57.419 61.5156 66.7316 66.3768 62.7603C68.05 61.3948 66.7466 57.7906 66.98 55.3102C69.6087 53.9223 69.5867 54.6297 68.7897 51.8986L70.005 50.7793C70.7844 50.0584 70.8945 50.2868 70.5818 49.3331L69.8773 47.1796C70.9473 46.2035 72.0173 45.232 73.0873 44.256C74.853 42.6486 74.2101 42.3621 72.8099 40.1682C70.6963 36.8596 69.0231 33.9359 68.6268 30.7258C68.1865 27.238 68.7985 24.6502 67.9091 20.5759Z" fill="#00AEB5"/>
</svg>
